<?xml version="1.0" encoding="utf-8"?>
<!-- Generator: Adobe Illustrator 16.0.0, SVG Export Plug-In . SVG Version: 6.00 Build 0)  -->
<!DOCTYPE svg PUBLIC "-//W3C//DTD SVG 1.1//EN" "http://www.w3.org/Graphics/SVG/1.1/DTD/svg11.dtd">
<svg version="1.1" id="Layer_1" xmlns:xodm="http://www.corel.com/coreldraw/odm/2003"
	 xmlns="http://www.w3.org/2000/svg" xmlns:xlink="http://www.w3.org/1999/xlink" x="0px" y="0px" width="310.564px"
	 height="170.418px" viewBox="0 0 310.564 170.418" enable-background="new 0 0 310.564 170.418" xml:space="preserve">
<g id="Layer_x0020_1">
	<path fill="#2B2A29" d="M204.822,29.584c16.091,2.227,46.081,11.314,57.676,24.389c16.163,18.162-41.427,25.144-70.572-2.54
		c-23.245-22.09-53.715-30.209-92.935-17.537c-19.358,6.281-41.106,13.229-59.119-0.342c6.984,16.194,31.533,22.82,53.932,16.588
		c74.239-13.404,33.793,39.897-12.225,31.95c17.282,14.451,39.571,12.752,58.48,2.801c61.007-33.727,58.634,14.77,10.656,10.426
		c-21.707-0.494-30.637,14.518-48.588,18.923C68.88,122.335,37.21,94.158,2.407,103.662c53.007,5.16,74.675,63.139,130.927,22.495
		c33.121-24.802,112.04-6.97,43.408,27.831c76.701,11.175,72.382-80.535,133.825-97.634
		c-28.022-30.046-66.262-38.295-105.742-26.775L204.822,29.584z M0,83.499C0.969,66.983,13.357,60.99,28.625,64.61
		c11.544,2.734,20.199,8.25,32.696,6.557c-8.786,12.505-23.617,11.467-36.411,7.872C12.883,75.647,9.871,75.233,0,83.499z
		 M233.285,14.173c-12.13-2.831-17.635-1.532-28.544,2.102c-11.955,3.991-24.121,4.172-32.029-7.498
		c11.769,1.197,17.007-2.903,27.061-6.589c13.646-5.005,26.442-1.591,33.516,11.985H233.285z M162.557,147.032
		c-12.996,2.77-20.086,10.878-30.65,17.498c-13.615,8.533-28.175,8.517-38.151-4.891c13.815,2.276,18.718-0.511,30.185-7.756
		c11.792-7.458,25.394-12.91,38.62-4.852H162.557z"/>
</g>
</svg>
