<?xml version="1.0" encoding="iso-8859-1"?>
<!-- Generator: Adobe Illustrator 25.1.0, SVG Export Plug-In . SVG Version: 6.00 Build 0)  -->
<svg version="1.1" id="Calque_1" xmlns="http://www.w3.org/2000/svg" xmlns:xlink="http://www.w3.org/1999/xlink" x="0px" y="0px"
	 width="706.2px" height="343.3px" viewBox="0 0 706.2 343.3" enable-background="new 0 0 706.2 343.3" xml:space="preserve">
<path d="M621.5,317.7h16.6v4.5h-10.6v6.4h8.8v4.5h-8.8v9.8h-6V317.7z M639.6,322.3h7.3v20.5h6v-20.5h7.3v-4.6h-20.6V322.3z
	 M616.9,325.3c0.7,1.6,1,3.3,1,5.1c0,1.9-0.4,3.5-1,5.1c-0.6,1.6-1.5,2.9-2.7,4.1c-1.1,1.1-2.5,2-4.2,2.7c-1.6,0.7-3.5,1-5.5,1
	s-3.8-0.3-5.5-1c-1.7-0.6-3.1-1.5-4.3-2.7c-1.1-1.2-2.1-2.5-2.7-4.1c-0.7-1.6-1-3.3-1-5.1c0-1.8,0.4-3.5,1-5.1
	c0.6-1.6,1.5-3,2.7-4.1c1.2-1.1,2.6-2,4.3-2.7c1.6-0.7,3.5-1,5.5-1s3.8,0.3,5.5,1c1.6,0.6,3,1.5,4.2,2.7
	C615.3,322.3,616.2,323.6,616.9,325.3z M611.7,330.2c0-1.3-0.2-2.4-0.5-3.4c-0.3-1-0.8-1.8-1.4-2.5s-1.4-1.2-2.3-1.6
	c-0.9-0.4-2-0.6-3.1-0.6c-1.2,0-2.2,0.2-3.1,0.6c-0.9,0.4-1.7,0.9-2.3,1.6s-1.1,1.5-1.4,2.5s-0.5,2.2-0.5,3.4c0,1.3,0.2,2.4,0.5,3.4
	c0.3,1,0.8,1.8,1.4,2.5s1.4,1.2,2.3,1.6c0.9,0.3,1.9,0.5,3.1,0.5c1.2,0,2.2-0.1,3.1-0.5c0.9-0.4,1.7-0.9,2.3-1.6
	c0.6-0.7,1.1-1.5,1.4-2.5C611.5,332.7,611.7,331.5,611.7,330.2z M458.7,338.1v-20.4h-6v25.1h15.6l0,0v-4.7H458.7z M701,317.7V331
	c0,0.4,0,0.8,0,1.3s0,0.9,0.1,1.4l-12.3-15.1c-0.1-0.2-0.3-0.4-0.4-0.5c-0.1-0.2-0.2-0.2-0.4-0.3c-0.2,0-0.3-0.1-0.5-0.1
	s-0.4,0-0.7,0h-3.2v25.1h5.3v-13.5c0-0.4,0-0.8,0-1.2c0-0.4-0.1-0.9-0.1-1.3l12.2,15c0.3,0.4,0.6,0.7,0.9,0.8
	c0.4,0.1,0.7,0.2,1.2,0.2h3.1v-25.1H701z M663.2,342.9h16.7v-4.5h-10.6v-6h8.1v-4.3h-8.1v-5.9h10.6v-4.5h-16.7V342.9z M564.9,328.2
	h-10.5v-10.5h-6v25.1h6v-10.6h10.5v10.6h6v-25.1h-6V328.2z M529.3,324.5c0.6-0.7,1.4-1.2,2.3-1.6c0.9-0.4,1.9-0.6,3-0.6
	c0.6,0,1.1,0,1.6,0.1c0.5,0.1,0.9,0.2,1.4,0.3c0.4,0.1,0.9,0.3,1.3,0.5s0.9,0.4,1.3,0.7c0.5,0.3,1,0.4,1.4,0.3
	c0.4-0.1,0.8-0.3,1.1-0.8l1.7-2.6c-0.5-0.5-1.1-0.9-1.8-1.3c-0.7-0.4-1.4-0.8-2.2-1.1c-0.8-0.3-1.7-0.5-2.6-0.7s-2-0.3-3-0.3
	c-2.1,0-4,0.3-5.7,0.9c-1.7,0.6-3.1,1.5-4.3,2.7c-1.2,1.1-2.1,2.5-2.7,4.1c-0.6,1.6-1,3.3-1,5.2c0,1.8,0.3,3.6,1,5.1
	s1.6,2.9,2.9,4.1c1.2,1.1,2.7,2,4.5,2.7c1.7,0.6,3.7,1,5.8,1c1.6,0,3.2-0.2,4.7-0.6c1.5-0.4,2.9-1.1,4.2-2.1v-10.6H535v3.2
	c0,0.3,0.1,0.6,0.3,0.8c0.2,0.2,0.5,0.3,0.9,0.3h2.6v3.8c-0.6,0.2-1.1,0.4-1.7,0.6c-0.6,0.1-1.2,0.2-2,0.2c-1.2,0-2.3-0.2-3.2-0.6
	c-1-0.4-1.8-0.9-2.5-1.6s-1.2-1.6-1.6-2.6c-0.4-1-0.6-2.2-0.6-3.6c0-1.2,0.2-2.3,0.5-3.3C528.2,326,528.7,325.2,529.3,324.5z
	 M511.9,332.6c0,0.9-0.1,1.7-0.3,2.4c-0.2,0.7-0.6,1.3-1,1.8c-0.4,0.5-1,0.9-1.6,1.1c-0.6,0.3-1.3,0.4-2.2,0.4s-1.5-0.1-2.2-0.4
	s-1.2-0.6-1.6-1.1c-0.4-0.5-0.8-1.1-1-1.8c-0.2-0.7-0.4-1.5-0.4-2.4v-14.9h-6v14.9c0,1.5,0.3,3,0.8,4.2c0.5,1.3,1.2,2.4,2.2,3.3
	c1,0.9,2.1,1.7,3.5,2.2c1.4,0.5,2.9,0.8,4.7,0.8c1.7,0,3.3-0.3,4.6-0.8c1.4-0.5,2.5-1.2,3.5-2.2c1-0.9,1.7-2,2.2-3.3
	s0.8-2.7,0.8-4.2v-14.9h-6V332.6z M484.6,317.7l10,25.1h-4.7c-0.5,0-0.9-0.1-1.3-0.4c-0.3-0.2-0.6-0.5-0.7-0.9l-1.5-4.4h-9.9
	l-1.5,4.4c-0.1,0.3-0.4,0.6-0.7,0.9c-0.3,0.3-0.8,0.4-1.3,0.4h-4.7v0l10-25.1H484.6z M485.065,333.1l-2.365-6.8
	c-0.2-0.4-0.4-0.9-0.6-1.5c-0.2-0.6-0.4-1.2-0.6-1.9c-0.2,0.7-0.4,1.3-0.6,1.9c-0.2,0.6-0.4,1.1-0.6,1.5l-2.4,6.8H485.065z"/>
<circle cx="427.5" cy="330.3" r="6"/>
<path d="M229.5,317.8l-10,25.1h4.7c0.5,0,1-0.1,1.3-0.4c0.3-0.3,0.6-0.6,0.7-0.9l1.5-4.5h9.9l1.5,4.4c0.1,0.4,0.4,0.7,0.7,0.9
	c0.4,0.3,0.8,0.4,1.3,0.4h4.7l-10-25.1L229.5,317.8z M229,333.1l2.4-6.8c0.2-0.4,0.4-0.9,0.6-1.5c0.2-0.6,0.4-1.2,0.6-1.9
	c0.2,0.7,0.4,1.3,0.6,1.9c0.2,0.6,0.4,1.1,0.6,1.5l2.365,6.8H229z M253.9,338.1h9.6v4.7h-15.6v-25.1h6V338.1z M222,322.3h-7.3v20.5
	h-6v-20.5h-7.3v-4.6H222V322.3z M282.2,331l7.8,11.7h-5.4c-0.4,0-0.7-0.1-0.9-0.1s-0.4-0.1-0.6-0.2s-0.4-0.2-0.5-0.3
	c-0.2-0.2-0.3-0.3-0.4-0.5l-5.9-8.7c-0.2-0.3-0.5-0.6-0.8-0.7c-0.3-0.1-0.7-0.2-1.3-0.2h-1.5v10.7h-6v-25.1h6v10.2h1
	c0.9,0,1.5-0.3,1.9-0.8l5.8-8.2c0.3-0.4,0.7-0.7,1.1-0.9c0.4-0.1,0.9-0.2,1.5-0.2h5.2l-7.7,10.2c-0.6,0.7-1.2,1.2-1.8,1.5
	c0.4,0.2,0.8,0.4,1.2,0.7C281.2,330.4,281.6,330.7,282.2,331z M400.6,317.7h6v25.1h-6v-10.6h-10.5v10.6h-6v-25.1h6v10.5h10.5V317.7z
	 M378.9,336.9l2.4,2.4c-1,1.3-2.3,2.3-3.9,3c-1.6,0.7-3.5,1-5.6,1c-2,0-3.7-0.4-5.3-1c-1.6-0.7-2.9-1.6-4-2.7
	c-1.1-1.2-1.9-2.5-2.5-4.1c-0.6-1.5-0.9-3.3-0.9-5.1c0-1.9,0.3-3.6,0.9-5.2c0.6-1.6,1.5-3,2.6-4.1c1.1-1.2,2.5-2.1,4.1-2.7
	c1.6-0.6,3.4-0.9,5.3-0.9c0.9,0,1.8,0,2.7,0.2c0.9,0.2,1.6,0.4,2.4,0.7c0.8,0.3,1.5,0.7,2.1,1.1c0.7,0.4,1.2,0.8,1.7,1.3l-2,2.6
	c-0.2,0.1-0.3,0.3-0.5,0.4c-0.2,0.1-0.5,0.2-0.8,0.2c-0.2,0-0.4,0-0.6-0.1s-0.4-0.2-0.6-0.3c-0.2-0.1-0.4-0.2-0.7-0.4
	c-0.2-0.1-0.5-0.3-0.9-0.4c-0.3-0.1-0.8-0.2-1.2-0.3c-0.4-0.1-1-0.1-1.6-0.1c-1,0-1.9,0.1-2.7,0.5c-0.8,0.4-1.5,0.9-2.1,1.6
	c-0.6,0.7-1.1,1.5-1.4,2.5s-0.5,2.1-0.5,3.4s0.1,2.4,0.5,3.4c0.4,1,0.9,1.8,1.5,2.5c0.6,0.7,1.3,1.3,2.2,1.6s1.8,0.5,2.7,0.5
	c0.6,0,1.1-0.1,1.5-0.1c0.5-0.1,0.9-0.2,1.3-0.3c0.4-0.1,0.8-0.3,1.1-0.5c0.4-0.2,0.7-0.5,1.1-0.8c0.2-0.1,0.3-0.2,0.5-0.3
	c0.1-0.1,0.3-0.1,0.5-0.1c0.1,0,0.3,0.1,0.4,0.1C378.7,336.5,378.8,336.6,378.9,336.9z M324.4,317.7h4.6v25.1h-5.3v-14.5
	c0-0.3,0-0.7,0-1.1c0-0.4,0-0.8,0.1-1.2l-6.9,12.9c-0.2,0.4-0.5,0.7-0.9,0.9c-0.4,0.2-0.8,0.3-1.2,0.3H314c-0.5,0-0.9-0.1-1.2-0.3
	c-0.4-0.2-0.6-0.5-0.9-0.9l-6.9-13c0,0.4,0.1,0.8,0.1,1.2s0,0.8,0,1.1v14.5h-5.3v-25.1h4.6c0.3,0,0.5,0,0.7,0s0.4,0,0.5,0.1
	c0.2,0,0.3,0.1,0.4,0.3c0.1,0.2,0.2,0.3,0.4,0.5l6.7,12.8c0.2,0.4,0.5,0.9,0.7,1.4s0.4,1,0.6,1.5c0.2-0.5,0.4-1,0.6-1.5
	s0.5-0.9,0.7-1.4l6.6-12.7c0.1-0.2,0.2-0.4,0.4-0.5c0.1-0.1,0.3-0.2,0.4-0.3c0.2-0.1,0.3-0.1,0.5-0.1
	C323.9,317.7,324.2,317.7,324.4,317.7z M350,317.7h6v14.9c0,1.5-0.3,2.9-0.8,4.2s-1.2,2.4-2.2,3.3c-1,1-2.1,1.7-3.5,2.2
	c-1.3,0.5-2.9,0.8-4.6,0.8c-1.8,0-3.3-0.3-4.7-0.8c-1.4-0.5-2.5-1.3-3.5-2.2c-1-0.9-1.7-2-2.2-3.3c-0.5-1.2-0.8-2.7-0.8-4.2v-14.9h6
	v14.9c0,0.9,0.2,1.7,0.4,2.4c0.2,0.7,0.6,1.3,1,1.8c0.4,0.5,1,0.8,1.6,1.1c0.7,0.3,1.4,0.4,2.2,0.4s1.6-0.1,2.2-0.4
	c0.6-0.2,1.2-0.6,1.6-1.1c0.4-0.5,0.8-1.1,1-1.8s0.3-1.5,0.3-2.4V317.7z"/>
<circle cx="181" cy="330.3" r="6"/>
<path d="M102.9,321.1c-1.1-1.1-2.5-2-4.2-2.7s-3.5-1-5.5-1s-3.8,0.3-5.5,1c-1.7,0.6-3.2,1.5-4.3,2.7c-1.1,1.2-2.1,2.5-2.7,4.1
	c-0.7,1.6-1,3.3-1,5.1c0,1.8,0.4,3.5,1,5.1c0.6,1.6,1.5,2.9,2.7,4.1c1.2,1.1,2.6,2,4.3,2.7c1.6,0.7,3.5,1,5.5,1s3.9-0.4,5.5-1
	c1.6-0.6,3.1-1.5,4.2-2.7c1.1-1.2,2.1-2.5,2.7-4.1c0.7-1.6,1-3.3,1-5.1c0-1.9-0.4-3.5-1-5.1C104.9,323.6,104,322.3,102.9,321.1z
	 M99.9,333.7c-0.3,1-0.8,1.8-1.4,2.5s-1.4,1.2-2.3,1.6c-0.9,0.3-2,0.5-3.1,0.5c-1.2,0-2.2-0.1-3.1-0.5c-0.9-0.4-1.7-0.9-2.3-1.6
	c-0.6-0.7-1.1-1.5-1.4-2.5s-0.5-2.1-0.5-3.4s0.2-2.4,0.5-3.4s0.8-1.8,1.4-2.5c0.6-0.7,1.4-1.2,2.3-1.6c0.9-0.4,1.9-0.6,3.1-0.6
	c1.2,0,2.2,0.2,3.1,0.6c0.9,0.4,1.7,0.9,2.3,1.6s1.1,1.5,1.4,2.5c0.3,1,0.5,2.2,0.5,3.4S100.2,332.7,99.9,333.7z M143,326.9
	c-0.4,1-0.5,2.1-0.5,3.3c0,1.3,0.2,2.5,0.6,3.6c0.4,1,0.9,1.9,1.6,2.6s1.5,1.3,2.5,1.6c1,0.4,2,0.6,3.2,0.6c0.7,0,1.4-0.1,2-0.2
	c0.6-0.1,1.2-0.3,1.7-0.6V334h-2.6c-0.4,0-0.7-0.1-0.9-0.3c-0.2-0.2-0.3-0.4-0.3-0.8l-0.1-3.1h9.2v10.6c-1.3,0.9-2.7,1.6-4.2,2.1
	c-1.5,0.4-3.1,0.6-4.7,0.6c-2.1,0-4.1-0.3-5.8-1s-3.2-1.5-4.5-2.7s-2.2-2.5-2.9-4.1c-0.7-1.6-1-3.3-1-5.1c0-1.9,0.3-3.6,1-5.2
	c0.6-1.6,1.5-2.9,2.7-4.1c1.2-1.1,2.6-2,4.3-2.7c1.7-0.6,3.6-0.9,5.7-0.9c1.1,0,2.1,0.1,3,0.3c0.9,0.2,1.8,0.4,2.6,0.7
	c0.8,0.3,1.5,0.7,2.2,1.1c0.7,0.4,1.3,0.9,1.8,1.3l-1.7,2.6c-0.3,0.4-0.6,0.7-1.1,0.8c-0.4,0.1-0.9,0-1.4-0.3s-0.9-0.5-1.3-0.7
	c-0.4-0.2-0.8-0.4-1.3-0.5c-0.5-0.1-0.9-0.2-1.4-0.3s-1-0.1-1.6-0.1c-1.1,0-2.1,0.2-3,0.6c-0.9,0.4-1.7,0.9-2.3,1.6
	C143.9,325.1,143.4,325.9,143,326.9z M127.3,317.7h5.3v25.1h-3.1c-0.5,0-0.9-0.1-1.2-0.2c-0.3-0.2-0.6-0.4-0.9-0.8l-12.2-15
	c0.1,0.4,0.1,0.9,0.1,1.3s0,0.8,0,1.2v13.5H110v-25.1h3.2c0.3,0,0.5,0,0.7,0c0.2,0,0.4,0,0.5,0.1c0.1,0.1,0.3,0.2,0.4,0.3
	c0.1,0.1,0.2,0.3,0.4,0.5l12.3,15.1c0-0.5-0.1-0.9-0.1-1.4s0-0.9,0-1.3h-0.1V317.7z M32.3,317.7h20.6v4.6h-7.3v20.5h-6v-20.5h-7.3
	V317.7z M19,331.9c0.3,0.8,0.5,1.7,0.5,2.7c0,1.2-0.2,2.3-0.6,3.3c-0.4,1-1,1.8-1.8,2.6c-0.8,0.8-1.8,1.4-2.9,1.8
	c-1.1,0.4-2.4,0.6-3.9,0.6c-0.8,0-1.7,0-2.5-0.2s-1.6-0.4-2.4-0.7c-0.8-0.2-1.5-0.6-2.2-1c-0.7-0.4-1.3-0.8-1.8-1.3l1.8-2.7
	c0.2-0.2,0.4-0.4,0.6-0.5c0.3-0.1,0.5-0.2,0.8-0.2c0.4,0,0.7,0.1,1.1,0.3c0.3,0.2,0.7,0.4,1.2,0.7c0.5,0.2,1,0.5,1.6,0.7
	c0.6,0.2,1.3,0.3,2.1,0.3c1,0,1.9-0.2,2.5-0.7c0.6-0.5,0.9-1.2,0.9-2.2c0-0.6-0.2-1-0.5-1.4c-0.3-0.3-0.8-0.7-1.3-0.9
	s-1.1-0.4-1.8-0.6c-0.7-0.2-1.4-0.4-2.1-0.6c-0.7-0.2-1.4-0.5-2.1-0.8s-1.3-0.8-1.8-1.3s-1-1.2-1.3-2c-0.3-0.8-0.5-1.8-0.5-3
	c0-1,0.2-1.9,0.6-2.8c0.4-0.9,0.9-1.7,1.7-2.4c0.8-0.7,1.7-1.3,2.8-1.7c1.1-0.4,2.4-0.6,3.8-0.6c0.8,0,1.5,0.1,2.3,0.2
	c0.7,0.1,1.4,0.3,2.1,0.5c0.7,0.2,1.3,0.5,1.9,0.8c0.6,0.3,1.1,0.7,1.6,1.1l-1.5,2.7c-0.2,0.2-0.4,0.5-0.6,0.6
	c-0.2,0.1-0.5,0.2-0.8,0.2s-0.6,0-0.9-0.2c-0.3-0.2-0.7-0.4-1.1-0.6s-0.9-0.4-1.4-0.6c-0.5-0.1-1-0.2-1.7-0.2
	c-1.1,0-1.9,0.2-2.5,0.7c-0.5,0.5-0.8,1.1-0.8,1.9c0,0.5,0.2,1,0.5,1.3c0.3,0.4,0.8,0.7,1.3,0.9c0.6,0.3,1.2,0.5,1.9,0.7
	s1.4,0.5,2.1,0.7c0.7,0.3,1.4,0.6,2.1,0.9c0.8,0.4,1.4,0.8,1.9,1.3S18.8,331.4,19,331.9z M23.2,317.7h6v25.1h-6V317.7z M69.1,338.1
	h9.6v4.7H63.1v-25.1h6V338.1z"/>
<path d="M197.8,150.8c-3.2,8.6-7.5,18.4-16.4,17.4c-8.9-1.8-13.3-6.2-13.2-13.5c0-4.3,1.5-10,4.5-16.9c0-3.2,2.4-4.7,7.2-4.7
	C188.8,132.8,201.4,140.7,197.8,150.8z M590.7,278.8c-22.4-31.4,4.5-75.1,16-105.7c-14.6,7.3-61.3,76.9-56.5,94.6
	c-3.1,10.7-34.2-4.3-25.2-21.4c-12,14.5-31.1,27.4-46.3,26.6c-19.3-0.3-36.3-14.9-36.3-34.6c-6.7,11.9-23.1,33.2-32.4,32.6
	c-13.7-0.9-27.3-14.5-27.1-28.1c0.3-20.3,16.9-49.1,24.1-69.7c-15.8,8.5-59.3,74.2-56.9,93.5c2.8,10.6-33.1,4.4-23.6-18.5
	c-11,14.4-27.2,25.5-41.7,24.9c-18.9-0.4-36-13.4-36-33.3c-7.7,14.2-21,32-35.2,31.4c-14.2,0.2-22.7-15.9-22.1-29
	c-6.5,11.4-22.2,30.4-30.1,29c-13.7,0-27.1-14.5-27.1-28.1c1.1-19.3,12-38,21-60.4c2.3-3.9,2.4-8,4.4-11.7
	c13.4-4.4,28.2,11.4,20.7,24.8c-6,18.9-18.5,38.9-20.1,56.3c2.3,13.2,13.7,2.7,21.8-8.8c17.1-23.6,28.9-60.6,43.4-88.6
	c-4.6,0.1-10.9,1.2-14.3-3c-2.3-2.2-5.5-10-0.6-11.2H232l9.2-20.2c0.4-1.2-0.1-4.6,1.5-5.5c15.1-5.1,23.4,12.9,16.2,26.1
	c6,0.6,11.6,8.4,7.7,14.3c-4.5,2.1-6.9-1.1-13.7-0.6c-6.6,14.6-14.6,31.7-21.4,47c-8.8,20.4-17.1,33.7-18.7,50.5
	c0.9,9.4,8.3,6.4,14.9-0.2c12.4-11.6,22.5-31.7,30.9-48.6c8.9-17.8,25.7-44.4,45.1-42.3c24.6,2.6,40.9,11.3,24.1,35.8
	c-1.8,1.8-5.9,0.9-8.5,0c-5.5-0.8,3.6-7.7,2.3-15.2c-3.9-23-33.7,26-37.5,35.5c-15.5,39.4-0.5,57.8,33.2,27.4
	c17.2-15.7,26.7-41.3,37.1-64.8c12.1-27.2,20.4-46.9,25.1-59.2c-0.5-9.5,12.1-8.2,17.4-2.9c7.8,9.1,5.1,14.1-0.6,28.8
	c-5,12.7-20,46.7-27.5,64.2c24.2-37.5,39.3-61.4,61.6-44.7c8.7,6.5,6.5,12.4,2.6,23c-6.4,17.6-22.3,45.7-24.1,63.2
	c1.7,13.4,13.9,2.7,21.8-8.8c14.6-19.2,26.1-54.5,44.3-71.7c15.4-14.5,32.8-12.3,44.1-3.2c26.5,21.3-17.3,64.7-45,57.1
	c-15.9,39.7,14.9,42.2,40.6,18.5c17.7-15.4,27.7-39.5,37.8-62.4c0,0,7.2-19.7,8.5-20.5c9.1-4,23,6.2,22.7,15.8
	c0,2.8-2.4,9.8-7.2,20.9c16-24.5,29.5-37,40.6-36.8c15.1,0.2,22.6,13,15.7,28.1c-7,15.2-18.9,40.7-23.5,58.6
	c-3.1,12.1-8.2,35.3,6.1,34.5c34.1-2,57.7-97.8,57.8-128c-0.3-9.4-1-19.5-10.2-20.4c-1.3,0-2.3,0.8-3,2.5c-1.3,0-2-0.7-2-2.2
	c1-11.2,15.7-8.1,23.9-5.7c15.8,5.1,21.5,12.9,21.5,33.1c-1.5,45.3-35.8,126.6-87.9,128.7C604.8,290.6,596.2,286.5,590.7,278.8z
	 M476.8,217.4c15.1-1.3,35.1-20.4,33.4-36.4C501.4,171.1,479.2,207.9,476.8,217.4z M75.3,208c6.4,30.1,16.1,92.6,54.5,93.3
	c11.7,0.2,25.3-8.9,25.6-20.7c0.1-1.8-1-1.9-2.3-0.6c-9.7,11.7-23.7,1.2-32.5-11.2c-13.2-18.6-23.4-53.6-23.3-75.2
	c16.8,0.9,93.1-76.3,65.4-89.4c-5.6-2.7-18.6-8.5-20,1.3c-3.6,25.4-29.9,56.3-52.5,67.5c10.8-27.6,17.2-35.7,19.2-50.5
	C109,105.4,91.2,95.6,75,97.1c-28,2.6-74.6,42.8-74.7,74.4c0,6.2,1.5,12.1,4,18.1c3,7.2,17.3,29.4,21.9,16.1
	c-2.7-5.9-6.4-11.9-6-19.9c1.9-33.6,37-59.6,66.5-76.1c3,3.5-3.2,12.5-10.7,32.6c-13.3,33.1-39.9,83.1-45.3,114.8
	c-0.2,10.7,14.7,16.7,23.7,13.9c1.6-0.7,1.7-2.5,1.4-4.1C55.2,256.8,61.4,242.8,75.3,208z"/>
<path d="M676.7,56.7h2.9c0.9,0,1.5,0.1,2,0.4c0.5,0.3,0.9,0.7,1.3,1.3l8,13.6c0.8,1.4,2.2,2.1,4.1,2.1h10.2l-10.5-16.4
	c-0.5-0.8-1.1-1.4-1.7-1.9c-0.6-0.5-1.3-1-2.1-1.4c1.6-0.6,3-1.3,4.2-2.2c1.2-0.9,2.2-1.9,3-3.1c0.8-1.2,1.4-2.4,1.9-3.8
	c0.4-1.3,0.6-2.8,0.6-4.3c0-2-0.4-3.8-1.1-5.5c-0.7-1.7-1.8-3.2-3.4-4.4c-1.6-1.2-3.6-2.2-6-2.9c-2.5-0.7-5.5-1-8.9-1h-15.7v46.9
	h11.2V56.7z M676.7,35.3h4.5c2.9,0,5.1,0.6,6.4,1.7c1.4,1.2,2.1,2.8,2.1,4.8c0,1-0.2,2-0.5,2.9c-0.3,0.9-0.8,1.7-1.5,2.3
	c-0.7,0.7-1.6,1.2-2.6,1.6c-1.1,0.4-2.4,0.6-3.9,0.6h-4.5V35.3z M565.8,67.6c2.2,2.2,4.9,3.8,7.9,5.1c3.1,1.2,6.5,1.8,10.3,1.8
	s7.2-0.6,10.3-1.8s5.7-2.9,7.9-5.1c2.2-2.2,3.9-4.7,5.1-7.6s1.8-6.1,1.8-9.5s-0.6-6.5-1.8-9.4c-1.2-2.9-2.9-5.5-5.1-7.6
	s-4.8-3.8-7.9-5.1c-3.1-1.2-6.5-1.9-10.3-1.9s-7.2,0.6-10.3,1.8s-5.7,2.9-7.9,5.1c-2.2,2.2-3.9,4.7-5.1,7.6
	c-1.2,2.9-1.8,6.1-1.8,9.5s0.6,6.6,1.8,9.5S563.6,65.5,565.8,67.6z M571.2,44.2c0.6-1.9,1.5-3.4,2.7-4.7s2.6-2.3,4.3-3s3.6-1,5.8-1
	c2.1,0,4.1,0.3,5.7,1s3.1,1.7,4.3,3s2.1,2.9,2.7,4.7c0.6,1.9,0.9,4,0.9,6.3c0,2.4-0.3,4.5-0.9,6.3c-0.6,1.9-1.5,3.4-2.7,4.7
	s-2.6,2.3-4.3,3s-3.6,1-5.7,1c-2.2,0-4.1-0.3-5.8-1s-3.1-1.7-4.3-3s-2.1-2.9-2.7-4.7c-0.6-1.9-0.9-4-0.9-6.3S570.6,46.1,571.2,44.2z
	 M616.6,62.8c-0.9-2.4-1.4-5.1-1.4-7.9V27.1h11.2v27.8c0,1.7,0.2,3.1,0.6,4.4c0.4,1.3,1.1,2.4,1.9,3.3c0.8,0.9,1.8,1.6,3,2.1
	s2.5,0.7,4,0.7s2.8-0.2,4-0.7s2.2-1.2,3-2.1c0.8-0.9,1.5-2,1.9-3.3s0.6-2.8,0.6-4.4V27.1h11.2v27.8c0,2.9-0.5,5.5-1.4,7.9
	c-1,2.4-2.3,4.5-4.1,6.2s-4,3.1-6.5,4.1c-2.6,1-5.5,1.5-8.7,1.5s-6.1-0.5-8.7-1.5c-2.6-1-4.7-2.3-6.5-4.1
	C618.9,67.3,617.5,65.2,616.6,62.8z"/>
<path d="M485.3,74H474V27.1h11.3V74z M504.5,44.2l22.6,28c1.8,2.8,9.8,1.8,9.8,1.8V27.1H527V57l-22.8-28.2c-0.3-0.4-0.6-0.7-0.8-0.9
	c-1.6-1.5-8.8-0.8-8.8-0.8V74h9.9V44.2z"/>
<path d="M218.2,68.2c-2.9-3.8-4.4-8.8-4.4-15.1c0-7.5,1.9-15.4,5.8-23.7c3.8-8.3,9-15.3,15.6-20.9c6.5-5.6,13.6-8.5,21.2-8.5
	c3.5,0,6.3,0.9,8.5,2.8c2.1,1.9,3.2,4.6,3.2,8.2c0,3.2-0.8,6.5-2.3,9.9c-1.5,3.5-3.4,6.3-5.8,8.7c-2.3,2.3-4.6,3.5-6.8,3.5
	c-1.1,0-2.3-0.8-3.6-2.3s-2-2.8-2-4c0-0.4,0.1-0.7,0.3-0.9s0.4-0.4,0.7-0.4c1.9,0,3.7-0.8,5.5-2.3c1.7-1.4,3.1-3.2,4.1-5.4
	c1-2.1,1.5-4.1,1.5-5.8c0-1.3-0.2-2.4-0.4-3.4c-0.3-1-0.8-1.5-1.6-1.5c-4.5,0-9.2,2.7-14.1,8c-4.9,5.4-9,11.8-12.3,19.3
	c-3.3,7.5-4.9,14.1-4.9,19.8c0,3.4,0.6,6.4,1.7,8.8c1.1,2.4,2.6,3.6,4.4,3.6c1.3,0,2.8-0.7,4.3-2.2c1.6-1.5,3.1-3.7,4.8-6.8l0.9-2
	l1.1-2.2l1.3-2.7c1.1-2.2,2.3-5.1,3.7-8.9l0.3-0.8c0.1-0.2,0.1-0.6,0.2-1.2c0.1-0.6,0.4-1.1,0.9-1.4c0.3-0.3,0.9-0.4,1.7-0.4
	c1.3,0,2.4,0.6,3.3,1.7c0.9,1.2,1.4,3,1.4,5.3c0,1.5-1.4,5.4-4.1,11.6L248,67c-0.8,1.7-1.9,4.2-3.3,7.6c-5.3,12.9-7.9,20.5-7.9,22.7
	c0,0.5,0,0.9,0.1,1.2c0.1,0.3,0.1,0.5,0.1,0.7c0,0.9-0.7,1.4-2.2,1.4c-1.8,0-3.5-0.7-5.1-2.2c-1.6-1.5-2.4-3.2-2.4-5.2
	c0-1.3,0.7-3.6,2-7.1c1.3-3.5,3.2-8,5.6-13.6c-1.3,0.9-2.3,1.4-3.2,1.4C225.6,73.9,221.1,72,218.2,68.2z M260.5,60.2
	c0.4-11.5,10.5-35.3,25.4-32.6c5.2,1.5,8.4,4.7,8.5,10.1l1.8-3.9c0.2-0.5,0.2-2.1,0.8-2.4c2.2-1,5.2,0.2,7.1,1.9
	c8.5,7.8-10.4,25.4-6.8,34.3c10.8,3.1,21.4-34.2,27.2-43.2c-2,0-4.7,0.5-6.1-1.3c-1-1-2.4-4.3-0.3-4.8h9.1l3.9-8.6
	c0.1-0.5-0.1-1.9,0.6-2.3c6.5-2.2,10,5.5,6.9,11.1c2.6,0.3,5,3.6,3.3,6.1c-1.9,0.8-2.9-0.5-5.8-0.3c-2.8,6.3-6.2,13.5-9.1,20
	c-8,14.2-13.6,37.9,4.7,13.6c7.5-12.7,18.2-38.2,22-49.2c2.3-4.8,10.2,0.1,9.3,5.1c-2.1,8.7-9.8,23.8-14,34.3
	c9.8-17.1,22.2-29.8,28.6-14.3c-1.1,6.9-7.8,18.8-10,25.4c-4.5,9.9,1.1,12.6,7.6,2.7c6.2-8.1,10.6-23.7,18.8-30.4
	c6.1-6.7,13.5-4.7,18.7-1.4c10.1,10.4-7.2,27.5-19.1,24.3c-9.8,31.2,30.1,6.4,32.1-20c-4.6-5.1-2.5-14.2,4.1-15.1
	c3.6,0.1,10.8,1,9.3,5.2c-16.8,17,8.3,12.1,6.9,17.9c-1.6,6.4-9.4,21.4-8.3,23.4c1.9,7.8,9.8-5.1,12.2-8.8c3.2-3.5,4-11.1,8.2-13.2
	c1.3-0.1,1.4,1.2,0.8,2.2c-6.1,12-9.9,25.6-20.9,28c-17.6-2.7-10.5-21.3-4.7-32.4c-1.5-0.8-2.9-1.8-4.3-3
	c-4.5,10.3-9.9,22.1-17.3,28.5c-10.6,12-30.8,9.6-31.7-7c-2.9,5.1-9.9,14.4-13.8,13.9c-5.8,0-11.5-6.1-11.5-11.9
	c0.3-8.7,7.2-20.9,10.3-29.6c-8.3,6.1-23.7,28.8-24.1,39.7c-0.3,5.5-12.9-0.4-10.5-5.5c-6.9,11.8-21.1,7.8-20.5-5
	c-2.8,4.8-9.4,12.9-12.8,12.3c-5.9-0.1-11.7-6.4-11.5-12.3c-3.5,5.4-8.1,11.9-13.9,12.4C264.7,72.7,260.4,67.1,260.5,60.2z
	 M394.7,51.1c13,0.2,21.9-30.1,4.4-8.7C397.5,44.9,396,47.8,394.7,51.1z M288.3,51.7c-2.6,0.2-5.1-2-5.2-4.1
	c15.9,2.1,7.6-35.7-8.6,5.2C264.5,81.2,282,66,288.3,51.7z"/>
<path d="M49.5,67.6c2.1,2.2,4.8,3.9,7.9,5.1c3.1,1.2,6.5,1.8,10.3,1.8s7.2-0.6,10.3-1.8c3.1-1.3,5.7-3,7.9-5.1
	c2.2-2.1,3.9-4.7,5.1-7.6s1.8-6.1,1.8-9.5c0-3.3-0.6-6.5-1.8-9.4c-1.2-2.9-2.9-5.5-5.1-7.6c-2.2-2.2-4.8-3.9-7.9-5.1
	c-3.1-1.3-6.5-1.9-10.3-1.9s-7.2,0.6-10.3,1.8c-3,1.3-5.7,3-7.9,5.1c-2.2,2.1-3.9,4.7-5.1,7.6c-1.2,2.9-1.8,6.1-1.8,9.5
	s0.6,6.6,1.8,9.5C45.6,62.9,47.3,65.4,49.5,67.6z M54.9,44.2c0.6-1.8,1.5-3.4,2.7-4.7c1.2-1.3,2.6-2.3,4.3-3s3.6-1,5.8-1
	c2.1,0,4,0.3,5.7,1s3.1,1.7,4.3,3s2.1,2.8,2.7,4.7c0.6,1.9,0.9,4,0.9,6.3c0,2.4-0.3,4.5-0.9,6.3c-0.6,1.8-1.5,3.4-2.7,4.7
	s-2.7,2.3-4.3,3c-1.6,0.7-3.6,1-5.7,1c-2.2,0-4.1-0.3-5.8-1s-3.1-1.7-4.3-3c-1.2-1.3-2.1-2.8-2.7-4.7c-0.6-1.9-0.9-4-0.9-6.3
	S54.3,46.1,54.9,44.2z M1.6,60C0.5,57,0,53.8,0,50.4c0-3.5,0.6-6.7,1.8-9.6c1.1-2.9,2.8-5.5,4.9-7.6c2.1-2.2,4.6-3.8,7.6-5
	c3-1.2,6.2-1.8,9.8-1.8c1.8,0,3.5,0.2,5.1,0.5c1.6,0.3,3.1,0.7,4.5,1.3c1.4,0.6,2.7,1.2,3.9,2c1.2,0.8,2.2,1.6,3.1,2.5l-3.8,4.9
	c-0.3,0.3-0.6,0.6-0.9,0.8c-0.3,0.3-0.8,0.4-1.4,0.4c-0.4,0-0.7-0.1-1.1-0.3c-0.3-0.1-0.7-0.4-1.1-0.6c-0.4-0.2-0.8-0.5-1.3-0.8
	s-1-0.5-1.7-0.8c-0.7-0.2-1.4-0.4-2.3-0.6c-0.9-0.2-1.9-0.3-3.1-0.3c-1.9,0-3.6,0.3-5.1,1c-1.5,0.7-2.9,1.6-4,2.9
	c-1.1,1.3-2,2.8-2.6,4.7c-0.6,1.9-0.9,4-0.9,6.4c0,2.4,0.3,4.5,1,6.4c0.7,1.9,1.6,3.4,2.8,4.7s2.5,2.2,4.1,2.9c1.6,0.7,3.2,1,5,1
	c1,0,2,0,2.8-0.1c0.9-0.1,1.6-0.3,2.4-0.5s1.5-0.5,2.1-0.9c0.7-0.3,1.3-0.8,2-1.4c0.3-0.2,0.6-0.4,0.9-0.5s0.7-0.2,1-0.2
	s0.5,0,0.8,0.1c0.2,0.2,0.5,0.4,0.5,0.5l4.5,4.5c-1.9,2.5-4.4,4.3-7.3,5.6s-6.4,1.9-10.4,1.9c-3.7,0-7-0.6-9.9-1.8
	c-2.9-1.2-5.4-2.9-7.4-5C4.2,65.5,2.7,62.9,1.6,60z M194.3,74h-31.1V27.1h31.1v8.4h-19.9v10.9h15.2v8.1h-15.2v11.1h19.9V74z
	 M109.1,74.1h-9.9V27.2h8.6c0.5,0,0.9,0,1.3,0c0.4,0,0.7,0.1,1,0.2c0.3,0.1,0.6,0.3,0.8,0.5c0.3,0.2,0.5,0.5,0.7,0.9L124,52.6
	c0.5,0.8,0.9,1.6,1.3,2.5c0.4,0.9,0.8,1.8,1.2,2.7c0.4-1,0.8-1.9,1.2-2.8s0.8-1.8,1.3-2.6l12.4-23.7c0.2-0.4,0.5-0.7,0.7-0.9
	c0.2-0.2,0.5-0.4,0.8-0.5c0.3-0.1,0.6-0.2,1-0.2c0.4,0,0.8,0,1.3,0h8.2V74h-9.9V47c0-0.6,0-1.3,0-2s0.1-1.4,0.2-2.2l-12.8,24.1
	c-0.4,0.8-0.9,1.3-1.6,1.7c-0.7,0.4-1.4,0.6-2.3,0.6h-1.5c-0.9,0-1.6-0.2-2.3-0.6c-0.7-0.4-1.2-1-1.6-1.7l-12.8-24.2
	c0.1,0.8,0.1,1.5,0.2,2.3s0.1,1.5,0.1,2.1V74.1z"/>
</svg>
